<svg width="132" height="52" viewBox="0 0 132 52" fill="none" xmlns="http://www.w3.org/2000/svg">
<g clip-path="url(#clip0_1_1806)">
<rect width="132" height="52" rx="26" fill="#41261D"/>
<path d="M31 35L25 32.9L20.35 34.7C20.0167 34.8333 19.7083 34.7958 19.425 34.5875C19.1417 34.3792 19 34.1 19 33.75V19.75C19 19.5333 19.0625 19.3417 19.1875 19.175C19.3125 19.0083 19.4833 18.8833 19.7 18.8L25 17L31 19.1L35.65 17.3C35.9833 17.1667 36.2917 17.2042 36.575 17.4125C36.8583 17.6208 37 17.9 37 18.25V32.25C37 32.4667 36.9375 32.6583 36.8125 32.825C36.6875 32.9917 36.5167 33.1167 36.3 33.2L31 35ZM30 32.55V20.85L26 19.45V31.15L30 32.55ZM32 32.55L35 31.55V19.7L32 20.85V32.55ZM21 32.3L24 31.15V19.45L21 20.45V32.3Z" fill="white"/>
<path d="M57.136 25.132H62.896V26.492H57.136V25.132ZM57.28 30.108H63.808V31.5H55.68V20.3H63.584V21.692H57.28V30.108ZM64.7553 31.5L68.4033 26.764L68.3873 27.548L64.9153 23.02H66.6273L69.2833 26.508H68.6273L71.2833 23.02H72.9633L69.4433 27.58L69.4593 26.764L73.1393 31.5H71.3953L68.5953 27.788L69.2193 27.884L66.4673 31.5H64.7553ZM79.3114 31.596C78.6074 31.596 77.962 31.436 77.3754 31.116C76.7994 30.7853 76.3354 30.3 75.9834 29.66C75.642 29.02 75.4714 28.22 75.4714 27.26C75.4714 26.3 75.6367 25.5 75.9674 24.86C76.3087 24.22 76.7674 23.74 77.3434 23.42C77.93 23.1 78.586 22.94 79.3114 22.94C80.1434 22.94 80.8794 23.1213 81.5194 23.484C82.1594 23.8467 82.666 24.3533 83.0394 25.004C83.4127 25.644 83.5994 26.396 83.5994 27.26C83.5994 28.124 83.4127 28.8813 83.0394 29.532C82.666 30.1827 82.1594 30.6893 81.5194 31.052C80.8794 31.4147 80.1434 31.596 79.3114 31.596ZM74.8154 34.604V23.02H76.2874V25.308L76.1914 27.276L76.3514 29.244V34.604H74.8154ZM79.1834 30.252C79.7274 30.252 80.2127 30.1293 80.6394 29.884C81.0767 29.6387 81.418 29.292 81.6634 28.844C81.9194 28.3853 82.0474 27.8573 82.0474 27.26C82.0474 26.652 81.9194 26.1293 81.6634 25.692C81.418 25.244 81.0767 24.8973 80.6394 24.652C80.2127 24.4067 79.7274 24.284 79.1834 24.284C78.65 24.284 78.1647 24.4067 77.7274 24.652C77.3007 24.8973 76.9594 25.244 76.7034 25.692C76.458 26.1293 76.3354 26.652 76.3354 27.26C76.3354 27.8573 76.458 28.3853 76.7034 28.844C76.9594 29.292 77.3007 29.6387 77.7274 29.884C78.1647 30.1293 78.65 30.252 79.1834 30.252ZM85.7216 31.5V19.628H87.2576V31.5H85.7216ZM93.8224 31.596C92.969 31.596 92.2117 31.4093 91.5504 31.036C90.889 30.6627 90.3664 30.1507 89.9824 29.5C89.5984 28.8387 89.4064 28.092 89.4064 27.26C89.4064 26.4173 89.5984 25.6707 89.9824 25.02C90.3664 24.3693 90.889 23.8627 91.5504 23.5C92.2117 23.1267 92.969 22.94 93.8224 22.94C94.665 22.94 95.417 23.1267 96.0784 23.5C96.7504 23.8627 97.273 24.3693 97.6464 25.02C98.0304 25.66 98.2224 26.4067 98.2224 27.26C98.2224 28.1027 98.0304 28.8493 97.6464 29.5C97.273 30.1507 96.7504 30.6627 96.0784 31.036C95.417 31.4093 94.665 31.596 93.8224 31.596ZM93.8224 30.252C94.3664 30.252 94.8517 30.1293 95.2784 29.884C95.7157 29.6387 96.057 29.292 96.3024 28.844C96.5477 28.3853 96.6704 27.8573 96.6704 27.26C96.6704 26.652 96.5477 26.1293 96.3024 25.692C96.057 25.244 95.7157 24.8973 95.2784 24.652C94.8517 24.4067 94.3664 24.284 93.8224 24.284C93.2784 24.284 92.793 24.4067 92.3664 24.652C91.9397 24.8973 91.5984 25.244 91.3424 25.692C91.0864 26.1293 90.9584 26.652 90.9584 27.26C90.9584 27.8573 91.0864 28.3853 91.3424 28.844C91.5984 29.292 91.9397 29.6387 92.3664 29.884C92.793 30.1293 93.2784 30.252 93.8224 30.252ZM100.347 31.5V23.02H101.819V25.324L101.675 24.748C101.909 24.1613 102.304 23.7133 102.859 23.404C103.413 23.0947 104.096 22.94 104.907 22.94V24.428C104.843 24.4173 104.779 24.412 104.715 24.412C104.661 24.412 104.608 24.412 104.555 24.412C103.733 24.412 103.083 24.6573 102.603 25.148C102.123 25.6387 101.883 26.348 101.883 27.276V31.5H100.347ZM110.498 31.596C109.591 31.596 108.791 31.4093 108.098 31.036C107.415 30.6627 106.882 30.1507 106.498 29.5C106.124 28.8493 105.938 28.1027 105.938 27.26C105.938 26.4173 106.119 25.6707 106.482 25.02C106.855 24.3693 107.362 23.8627 108.002 23.5C108.652 23.1267 109.383 22.94 110.194 22.94C111.015 22.94 111.74 23.1213 112.37 23.484C112.999 23.8467 113.49 24.3587 113.842 25.02C114.204 25.6707 114.386 26.4333 114.386 27.308C114.386 27.372 114.38 27.4467 114.37 27.532C114.37 27.6173 114.364 27.6973 114.354 27.772H107.138V26.668H113.554L112.93 27.052C112.94 26.508 112.828 26.0227 112.594 25.596C112.359 25.1693 112.034 24.8387 111.618 24.604C111.212 24.3587 110.738 24.236 110.194 24.236C109.66 24.236 109.186 24.3587 108.77 24.604C108.354 24.8387 108.028 25.1747 107.794 25.612C107.559 26.0387 107.442 26.5293 107.442 27.084V27.34C107.442 27.9053 107.57 28.412 107.826 28.86C108.092 29.2973 108.46 29.6387 108.93 29.884C109.399 30.1293 109.938 30.252 110.546 30.252C111.047 30.252 111.5 30.1667 111.906 29.996C112.322 29.8253 112.684 29.5693 112.994 29.228L113.842 30.22C113.458 30.668 112.978 31.0093 112.402 31.244C111.836 31.4787 111.202 31.596 110.498 31.596Z" fill="white"/>
</g>
<rect x="0.5" y="0.5" width="131" height="51" rx="25.5" stroke="#B68777"/>
<defs>
<clipPath id="clip0_1_1806">
<rect width="132" height="52" rx="26" fill="white"/>
</clipPath>
</defs>
</svg>
